<svg xmlns="http://www.w3.org/2000/svg" viewBox="0 0 96 96"><circle cx="48" cy="48" r="37" fill="#FBECEA"/><g fill="none" stroke="#1E1E1E" stroke-width="4" stroke-linecap="round" stroke-linejoin="round"><path d="M31 47h34l-5 31H36z"/><path d="M39 47V34"/><path d="M48 47V25"/><path d="M57 47V32"/><path d="M48 34c-8-10-16-12-23-7 4 8 11 11 23 7z"/><path d="M49 31c5-12 12-17 21-15 0 10-7 16-21 15z"/><path d="M38 39c-7-4-13-4-19 0 5 7 11 8 19 0z"/><path d="M57 39c7-5 13-6 20-2-4 8-11 10-20 2z"/></g></svg>